  <!-- xmlns:xlink="http://www.w3.org/1999/xlink" -->
<svg
  xmlns="http://www.w3.org/2000/svg"
  class="inline-block text-center align-baseline"
>
  <defs>

    <!-- 1. Mentalism -->
    <symbol id="Mentalism" fill-rule="evenodd" viewBox="0 0 512 512">
      <circle fill="currentcolor" cx="255.5" cy="255.5" r="158.5" />
    </symbol>

    <!-- 2. Correspondence -->
    <symbol id="Correspondence" fill-rule="nonzero" viewBox="0 0 512 512">
      <path
        fill="currentcolor"
        rx="0"
        ry="0"
        d="M263.071,248.929C259.166,245.024,252.834,245.024,248.929,248.929L110.929,386.929C104.629,393.229,109.091,404.000,118.000,404.000L394.000,404.000C402.909,404.000,407.371,393.229,401.071,386.929L263.071,248.929ZZM256.000,241.858L142.142,128.000L369.858,128.000L256.000,241.858ZZM263.071,263.071L401.071,125.071C407.371,118.771,402.909,108.000,394.000,108.000L118.000,108.000C109.091,108.000,104.629,118.771,110.929,125.071L248.929,263.071C252.834,266.976,259.166,266.976,263.071,263.071ZZ"
      />
    </symbol>

    <!-- 3. Vibration -->
    <symbol id="Vibration" fill-rule="nonzero" viewBox="0 0 512 512">
      <path
        fill="currentcolor"
        d="M255.5,394 C331.991438,394 394,331.991438 394,255.5 C394,179.008562 331.991438,117 255.5,117 C179.008562,117 117,179.008562 117,255.5 C117,331.991438 179.008562,394 255.5,394 Z M255.5,414 C167.962867,414 97,343.037133 97,255.5 C97,167.962867 167.962867,97 255.5,97 C343.037133,97 414,167.962867 414,255.5 C414,343.037133 343.037133,414 255.5,414 Z M256,344 C304.601058,344 344,304.601058 344,256 C344,207.398942 304.601058,168 256,168 C207.398942,168 168,207.398942 168,256 C168,304.601058 207.398942,344 256,344 Z M256,364 C196.353247,364 148,315.646753 148,256 C148,196.353247 196.353247,148 256,148 C315.646753,148 364,196.353247 364,256 C364,315.646753 315.646753,364 256,364 Z M256,292 C275.882251,292 292,275.882251 292,256 C292,236.117749 275.882251,220 256,220 C236.117749,220 220,236.117749 220,256 C220,275.882251 236.117749,292 256,292 Z M256,312 C225.072054,312 200,286.927946 200,256 C200,225.072054 225.072054,200 256,200 C286.927946,200 312,225.072054 312,256 C312,286.927946 286.927946,312 256,312 Z"
      />
    </symbol>

    <!-- 4. Polarity -->
    <symbol id="Polarity" fill-rule="nonzero" viewBox="0 0 512 512">
      <path
        fill="currentcolor"
        d="M398.557828,256 L256,113.442172 L113.442172,256 L398.557828,256 Z M263.071068,92.2289681 L420.048773,249.206674 C423.954016,253.111916 423.954016,259.443566 420.048773,263.348809 L263.071068,420.326515 C259.165825,424.231757 252.834175,424.231757 248.928932,420.326515 L91.9512268,263.348809 C88.0459838,259.443566 88.0459838,253.111916 91.9512268,249.206674 L248.928932,92.2289681 C252.834175,88.3237252 259.165825,88.3237252 263.071068,92.2289681 Z"
      />
    </symbol>

    <!-- 5. Rhythm -->
    <symbol id="Rhythm" fill-rule="nonzero" viewBox="0 0 512 512">
      <path
        fill="currentcolor"
        d="M179.537089,205 C151.577996,205 123.724648,195.454554 95.6881537,176.455687 C89.7901219,172.449955 88.2272454,164.420949 92.189065,158.486095 C96.1753361,152.523026 104.240447,150.922499 110.182912,154.954008 C157.193916,186.821493 201.895124,186.821495 248.733807,154.96562 C299.607308,120.369566 363.868187,120.353795 416.17628,154.866607 C422.129439,158.798751 423.787098,166.814446 419.902692,172.78838 C415.998015,178.804832 407.961973,180.490004 401.950285,176.54857 C358.41497,147.814178 305.371002,147.80148 263.256863,176.448268 C235.314719,195.448139 207.495422,205 179.537089,205 Z M416.171763,243.862023 L416.175394,243.86442 C422.126792,247.795079 423.785843,255.807208 419.904352,261.786085 C415.999485,267.802259 407.961243,269.486925 401.950693,265.546565 C358.405358,236.815336 305.360825,236.800328 263.256227,265.446075 C235.31654,284.444198 207.49694,293.994755 179.531538,294 C151.5764,294 123.725252,284.452868 95.6887798,265.453832 C89.7876754,261.44762 88.2259084,253.414782 92.18333,247.495355 C96.1649717,241.5171 104.237075,239.918941 110.182357,243.95203 C157.193959,275.820465 201.894928,275.822717 248.733125,243.963639 C299.601615,209.370293 363.862217,209.354524 416.171763,243.862023 Z M416.171214,332.857272 L416.175792,332.860294 C422.126749,336.79117 423.785407,344.802789 419.904174,350.783329 C415.999118,356.799253 407.960753,358.483724 401.950316,354.542953 C358.410168,325.811616 305.370042,325.799046 263.254937,354.441906 C235.316935,373.446155 207.497094,382.999998 179.537973,382.999998 C151.582925,383.005241 123.726473,373.456087 95.68742,354.450031 C89.7876077,350.442925 88.2262461,342.410789 92.1875065,336.484873 C96.1702686,330.517116 104.238043,328.916003 110.183202,332.948218 C157.200299,364.829134 201.895841,364.828008 248.733832,332.958773 C299.604511,298.371895 363.861944,298.356128 416.171214,332.857272 Z"      />
    </symbol>

    <!-- 6. Causality -->
    <symbol id="Causality" fill-rule="evenodd" viewBox="0 0 512 512">
      <path
        fill="currentcolor"
        d="M97.5,256 C97.5,168.462867 168.462867,97.5 256,97.5 C343.537133,97.5 414.5,168.462867 414.5,256 C414.5,343.537133 343.537133,414.5 256,414.5 C168.462867,414.5 97.5,343.537133 97.5,256 Z M256,116 C178.680135,116 116,178.680135 116,256 C116,333.319865 178.680135,396 256,396 L256,116 Z M256,312 C225.072054,312 200,286.927946 200,256 C200,225.072054 225.072054,200 256,200 C286.927946,200 312,225.072054 312,256 C312,286.927946 286.927946,312 256,312 Z"
      />
    </symbol>

    <!-- 7. Gender -->
    <symbol id="Gender" fill-rule="nonzero" viewBox="0 0 512 512">
      <path
        fill="currentcolor"
        d="M187.072,187.572C191.375,165.392,202.113,144.217,219.288,127.042C265.144,81.186,339.515,81.214,385.401,127.099C431.286,172.985,431.314,247.356,385.458,293.212C368.283,310.387,347.108,321.125,324.928,325.428C320.625,347.608,309.887,368.783,292.712,385.958C246.856,431.814,172.485,431.786,126.599,385.901C80.714,340.015,80.686,265.644,126.542,219.788C143.717,202.613,164.892,191.875,187.072,187.572ZL187.072,187.572ZZM208.060,185.423C238.627,185.039,269.323,196.515,292.654,219.846C315.985,243.177,327.461,273.873,327.077,304.440C343.287,300.223,358.619,291.766,371.316,279.070C409.359,241.027,409.336,179.319,371.258,141.242C333.181,103.164,271.473,103.141,233.430,141.184C220.734,153.881,212.277,169.213,208.060,185.423ZZM184.923,208.560C168.713,212.777,153.381,221.234,140.684,233.930C102.641,271.973,102.664,333.681,140.742,371.758C178.819,409.836,240.527,409.859,278.570,371.816C291.266,359.119,299.723,343.787,303.940,327.577C273.373,327.961,242.677,316.485,219.346,293.154C196.015,269.823,184.539,239.127,184.923,208.560ZZM205.019,205.519C203.797,231.959,213.287,258.811,233.488,279.012C253.689,299.213,280.541,308.703,306.981,307.481C308.203,281.041,298.713,254.189,278.512,233.988C258.311,213.787,231.459,204.297,205.019,205.519ZL205.019,205.519ZZ"
      />
    </symbol>

    <!-- 8. Care -->
    <symbol id="Care" fill-rule="nonzero" viewBox="0 0 512 512">
      <path
        fill="currentcolor"
        d="M255.5,394 C331.991438,394 394,331.991438 394,255.5 C394,179.008562 331.991438,117 255.5,117 C179.008562,117 117,179.008562 117,255.5 C117,331.991438 179.008562,394 255.5,394 Z M255.5,414 C167.962867,414 97,343.037133 97,255.5 C97,167.962867 167.962867,97 255.5,97 C343.037133,97 414,167.962867 414,255.5 C414,343.037133 343.037133,414 255.5,414 Z"
      />
    </symbol>

    <!-- TFM Logotype -->
    <symbol id="tfm-lt" fill-rule="nonzero" viewBox="0 0 512 130">
      <path
        fill="currentcolor"
        d="M 0,0 V 38.28125 H 52.634766 V 130 H 99.460938 V 38.28125 H 152.0957 V 0 Z m 169.86914,0 v 130 h 47.50781 v -23.35938 h 68.01758 V 68.359375 H 217.37695 V 38.28125 h 75.53711 V 0 Z m 140.47461,0 v 130 h 46.48437 V 73.144531 h 1.36719 L 380.24023,130 h 61.98047 l 21.92969,-56.171875 h 1.36719 V 130 H 512 V 0 h -59.12891 l -40.67382,99.121094 h -2.05079 L 369.47461,0 Z"
      />
    </symbol>

    <!-- TFM Logomark -->
    <symbol id="tfm-lm" fill-rule="nonzero" viewBox="0 0 512 512">
        <circle
          transform="scale(3.7795276)"
          style="font-variation-settings:'wght' 900;fill:#000000;stroke-width:0.231364;-webkit-print-color-adjust:exact"
          id="path1-6"
          cx="67.73333"
          cy="67.73333"
          r="67.73333" />
        <path
          transform="scale(3.7795276)"
          id="path7-3-7"
          style="font-size:160.116px;font-family:'Inter V';-inkscape-font-specification:'Inter V, @wght=900';font-variation-settings:'wght' 900;dominant-baseline:ideographic;white-space:pre;fill:#ffffff;stroke-width:0.310429;-webkit-print-color-adjust:exact"
          d="m 14.007041,54.231501 v 7.907559 h 10.8724 v 18.945859 h 9.672533 V 62.13906 h 10.8724 v -7.907559 z m 35.088656,0 v 26.853418 h 9.813337 v -4.82522 H 72.958946 V 68.352138 H 58.909034 V 62.13906 h 15.603179 v -7.907559 z m 29.016835,0 v 26.853418 h 9.601935 v -11.74433 h 0.282413 l 4.553671,11.74433 h 12.802869 l 4.52987,-11.60313 h 0.28225 v 11.60313 h 9.60154 V 54.231501 H 107.55323 L 99.151508,74.706422 H 98.727905 L 90.326609,54.231501 Z" />
    </symbol>

  </defs>
</svg>

  